<svg version="1.0"
     xmlns="http://www.w3.org/2000/svg"
     viewBox="0 0 180 272">
    <path fill="#59544F"
          d="M1 137v134h179l-.2-133.8-.3-133.7-89.2-.3L1 3v134zm42.2-63.5c45.7 130.1 51.9 147.8 51.6 148.1-.2.1-10.5-2.2-22.8-5.3l-22.5-5.5-6.5-6.7c-3.6-3.6-13.4-14-21.8-23.1L6.1 164.5 6 86.2V7.9l7.2.3 7.1.3 22.9 65zm131.6 51.7c.1 64.3 0 116.8-.2 116.8-1.8 0-72.2-18.2-72.8-18.8-.5-.5-4.5-11.2-8.9-23.8-4.4-12.6-21.3-60.6-37.5-106.6C39.2 46.8 26 8.9 26 8.6c0-.4 33.4-.5 74.3-.4l74.2.3.3 116.7zM23.6 191.1C31.5 199.7 38 207 38 207.3c0 .2-7.2-1.3-16-3.5l-16-4v-13.5c0-12.2.2-13.4 1.6-12.2.8.7 8 8.3 16 17zM26 210c19.4 4.9 19.5 4.9 23.5 9.2 4.3 4.6 36.2 39.4 40.4 44l2.5 2.8H6v-30.5c0-16.8.1-30.5.3-30.5.1 0 9 2.3 19.7 5zm51.8 13c10.7 2.7 19.5 5 19.7 5.2.1.2 2.5 6.8 5.3 14.8s5.7 16.4 6.6 18.7l1.5 4.3H99.5l-19-20.6c-23-25.1-25-27.4-23.3-27.4.7 0 10 2.3 20.6 5zm61.6 15.5c18.5 4.6 34.1 8.7 34.6 9 .6.4 1 4.6 1 9.6v8.9h-58.7l-5.8-16.7c-3.2-9.3-6-17.4-6.3-18.1-.2-.6 0-1.2.5-1.2.6 0 16.2 3.8 34.7 8.5z" />
</svg>